# ProBuilder 4.0.5
# https://unity3d.com/unity/features/worldbuilding/probuilder
# 22/1/2020 10:11:03

mtllib ./ArchEscala.mtl
o ArchEscala

g Arch
v 0.9774906 -0.6500005 -10.40129
v 1.153248 -0.6500005 -10.95672
v 0.9774906 6.200008 -10.40129
v 1.153248 6.200008 -10.95672
v 1.243961 -0.6500005 -10.91463
v 1.075263 -0.6500005 -10.3803
v 1.243961 6.200008 -10.91463
v 1.075263 6.200008 -10.3803
v 1.405243 -0.6500002 -11.77869
v 1.405243 6.200006 -11.77869
v 1.484406 -0.6500003 -11.7176
v 1.484407 6.200006 -11.7176
v 1.733707 -0.6500002 -12.4026
v 1.834385 6.200006 -12.31075
v 1.797404 -0.6500002 -12.32551
v 1.898081 6.200005 -12.23366
v 2.292289 -0.6500003 -12.76784
v 2.292289 6.200003 -12.76784
v 2.337366 -0.6500003 -12.67857
v 2.337366 6.200003 -12.67858
v 2.917797 -0.6500004 -13.00055
v 2.917798 6.200003 -13.00055
v 2.942024 -0.6500004 -12.90353
v 2.942025 6.200003 -12.90353
v 3.579276 -0.6500006 -13.08921
v 3.579276 6.200004 -13.08921
v 3.581454 -0.6500008 -12.98924
v 3.581454 6.200004 -12.98924
v 4.243989 -0.6500009 -13.02944
v 4.243989 6.200004 -13.02944
v 4.224009 -0.6500009 -12.93145
v 4.224009 6.200004 -12.93146
v 4.879037 -0.6500008 -12.82419
v 4.879038 6.200003 -12.82419
v 4.83789 -0.6500009 -12.73304
v 4.83789 6.200003 -12.73305
v 5.452993 -0.6500011 -12.48361
v 5.452994 6.200003 -12.48361
v 5.392714 -0.650001 -12.40382
v 5.392715 6.200003 -12.40383
v 5.910216 -0.6500015 -11.8977
v 5.910216 6.200004 -11.8977
v 5.833788 -0.6500015 -11.83321
v 5.833788 6.200004 -11.83321
v 6.281199 -0.6500015 -11.34291
v 6.2812 6.200004 -11.34292
v 6.192406 -0.6500015 -11.29692
v 6.192406 6.200004 -11.29692
v 6.370257 -0.6500018 -10.75206
v 6.370258 6.200005 -10.75206
v 6.273491 -0.6500018 -10.72683
v 6.273492 6.200005 -10.72683
v 6.336498 -0.650001 -10.00137
v 6.336499 6.200003 -10.00137
v 6.23655 -0.650001 -9.998158
v 6.23655 6.200003 -9.998159
v 6.283584 -0.650001 -9.336072
v 6.283584 6.200004 -9.336074
v 6.185398 -0.6500009 -9.355042
v 6.185399 6.200004 -9.355042
v 5.964017 -0.6500012 -8.724885
v 5.881239 6.200006 -8.794575
v 5.993329 -0.6500009 -8.739145
v 5.789677 6.200006 -8.834781
v 5.602726 -0.6500016 -8.498211
v 5.602726 6.20001 -8.530175
v 5.643192 -0.6500014 -8.531718
v 5.522319 6.20001 -8.58963
v 5.257943 -0.6500015 -8.363449
v 5.304547 6.20001 -8.292256
v 5.192669 -0.6500015 -8.439208
v 5.239275 6.20001 -8.368014
v 4.812056 -0.650001 -7.964215
v 4.812056 6.200006 -7.964217
v 4.765147 -0.650001 -8.05253
v 4.765147 6.200006 -8.052531
v 4.19148 -0.650001 -7.718652
v 4.191481 6.200007 -7.718653
v 4.165257 -0.650001 -7.815153
v 4.165257 6.200007 -7.815154
v 3.752152 -0.6500003 -7.462738
v 3.752153 6.200002 -7.462739
v 3.724808 -0.6500005 -7.633268
v 3.724809 6.200004 -7.633269
v 3.444375 -0.65 -7.413525
v 3.444376 6.200002 -7.413526
v 3.462329 -0.65 -7.5119
v 3.46233 6.200002 -7.511901
v 2.664047 -0.65 -7.560842
v 2.664047 6.200002 -7.560843
v 2.703306 -0.65 -7.652813
v 2.703306 6.200002 -7.652814

vt 0 0
vt 0 0.6673945
vt 6.85 0
vt 6.85 0.6673945
vt 0 0.6562712
vt 0 0.01112323
vt -6.85 0.6562712
vt -6.85 0.01112323
vt 0 6.85
vt 0.0999999 6.85
vt 0.0999999 0
vt 0 0.6508796
vt 0 1.318274
vt 6.85 0.6508796
vt 6.85 1.318274
vt 0 1.307151
vt 0 0.6620028
vt -6.85 1.307151
vt -6.85 0.6620028
vt 0 1.253032
vt 0 1.920426
vt 6.85 1.253032
vt 6.85 1.920426
vt 0 1.909303
vt 0 1.264155
vt -6.85 1.909303
vt -6.85 1.264155
vt 0 1.776656
vt 0 2.444051
vt 6.85 1.776656
vt 6.85 2.444051
vt 0 2.432927
vt 0 1.787779
vt -6.85 2.432927
vt -6.85 1.787779
vt -2.195837 0
vt -2.863232 0
vt -2.195837 6.85
vt -2.863232 6.85
vt 2.852109 0
vt 2.206961 0
vt 2.852109 6.85
vt 2.206961 6.85
vt -2.489831 0
vt -3.157225 0
vt -2.489831 6.85
vt -3.157225 6.85
vt 3.146102 0
vt 2.500954 0
vt 3.146102 6.85
vt 2.500954 6.85
vt -2.644087 0
vt -3.311481 0
vt -2.644087 6.85
vt -3.311481 6.85
vt 3.300358 0
vt 2.65521 0
vt 3.300358 6.85
vt 2.65521 6.85
vt -2.650969 0
vt -3.318364 0
vt -2.650969 6.85
vt -3.318364 6.85
vt 3.30724 0
vt 2.662092 0
vt 3.30724 6.85
vt 2.662092 6.85
vt -2.510138 0
vt -3.177533 0
vt -2.510138 6.85
vt -3.177533 6.85
vt 3.166409 0
vt 2.521261 0
vt 3.166409 6.85
vt 2.521261 6.85
vt -2.228566 0
vt -2.89596 0
vt -2.228566 6.85
vt -2.89596 6.85
vt 2.884838 0
vt 2.23969 0
vt 2.884838 6.85
vt 2.23969 6.85
vt -1.820185 0
vt -2.48758 0
vt -1.820185 6.85
vt -2.48758 6.85
vt 2.476456 0
vt 1.831308 0
vt 2.476456 6.85
vt 1.831308 6.85
vt 0 -1.305206
vt 0 -1.9726
vt -6.85 -1.305206
vt -6.85 -1.9726
vt 0 -1.961478
vt 0 -1.31633
vt 6.85 -1.961478
vt 6.85 -1.31633
vt 0 -0.7091186
vt 0 -1.376513
vt -6.85 -0.7091186
vt -6.85 -1.376513
vt 0 -1.365387
vt 0 -0.7202392
vt 6.85 -1.365387
vt 6.85 -0.7202392
vt 0 -0.06142352
vt 0 -0.7288181
vt -6.85 -0.06142352
vt -6.85 -0.7288181
vt 0 -0.7176933
vt 0 -0.07254523
vt 6.85 -0.7176933
vt 6.85 -0.07254523
vt 0 0.6058304
vt 0 -0.06156405
vt -6.85 0.6058304
vt -6.85 -0.06156405
vt 0 -0.05044064
vt 0 0.5947074
vt 6.85 -0.05044064
vt 6.85 0.5947074
vt 0 1.259618
vt 0 0.5922234
vt -6.85 1.259618
vt -6.85 0.5922234
vt 0 0.6033441
vt 0 1.248492
vt 6.85 0.6033441
vt 6.85 1.248492
vt 0 1.867579
vt 0 1.200183
vt -6.85 1.867579
vt -6.85 1.200183
vt 0 1.211306
vt 0 1.856455
vt 6.85 1.211306
vt 6.85 1.856455
vt 0 2.399624
vt 0 1.73223
vt -6.85 2.399624
vt -6.85 1.73223
vt 0 1.743353
vt 0 2.388501
vt 6.85 1.743353
vt 6.85 2.388501
vt 2.829427 0
vt 2.162033 0
vt 2.829427 6.85
vt 2.162033 6.85
vt -2.173156 0
vt -2.818304 0
vt -2.173156 6.85
vt -2.818304 6.85
vt 3.135716 0
vt 2.468322 0
vt 3.135716 6.85
vt 2.468322 6.85
vt -2.479444 0
vt -3.124592 0
vt -2.479444 6.85
vt -3.124592 6.85
vt 3.30333 0
vt 2.635936 0
vt 3.30333 6.85
vt 2.635936 6.85
vt -2.64706 0
vt -3.292208 0
vt -2.64706 6.85
vt -3.292208 6.85
vt 3.323977 0
vt 2.656582 0
vt 3.323977 6.85
vt 2.656582 6.85
vt -2.667705 0
vt -3.312853 0
vt -2.667705 6.85
vt -3.312853 6.85
vt 6.85 -2.327574
vt 6.85 -2.427573
vt 0 -2.327574
vt 0 -2.427573
vt 0.07423592 0.6632529
vt 0.1717613 0.6411445
vt -0.07423592 0.6632529
vt -0.1717613 0.6411445
vt -0.0999999 0
vt 0.2932696 1.293681
vt 0.3834937 1.250558
vt -0.2932696 1.293681
vt -0.3834937 1.250558
vt 0.646261 1.860084
vt 0.7247188 1.798081
vt -0.646261 1.860084
vt -0.7247188 1.798081
vt 1.11574 2.33443
vt 1.178549 2.256616
vt -1.11574 2.33443
vt -1.178549 2.256616
vt 1.678473 2.693244
vt 1.722524 2.60347
vt -1.678473 2.693244
vt -1.722524 2.60347
vt 2.306608 2.918768
vt 2.329721 2.821476
vt -2.306608 2.918768
vt -2.329721 2.821476
vt 2.96906 2.99984
vt 2.970092 2.899846
vt -2.96906 2.99984
vt -2.970092 2.899846
vt 3.633044 2.932449
vt 3.611942 2.834701
vt -3.633044 2.932449
vt -3.611942 2.834701
vt 4.265697 2.719928
vt 4.223507 2.629264
vt -4.265697 2.719928
vt -4.223507 2.629264
vt 4.835711 2.372797
vt 4.77452 2.293704
vt -4.835711 2.372797
vt -4.77452 2.293704
vt 5.314874 1.908235
vt 5.237711 1.844627
vt -5.314874 1.908235
vt -5.237711 1.844627
vt 5.679472 1.349233
vt 5.590157 1.304258
vt -5.679472 1.349233
vt -5.590157 1.304258
vt 5.911462 0.7234564
vt 5.814413 0.6993412
vt -5.911462 0.7234564
vt -5.814413 0.6993412
vt 5.999362 0.0618757
vt 5.899383 0.05981318
vt -5.999362 0.0618757
vt -5.899383 0.05981318
vt 5.938822 -0.6027672
vt 5.840861 -0.582675
vt -5.938822 -0.6027672
vt -5.840861 -0.582675
vt 5.732837 -1.237579
vt 5.641743 -1.196326
vt -5.732837 -1.237579
vt -5.641743 -1.196326
vt 5.391603 -1.811142
vt 5.311882 -1.750771
vt -5.391603 -1.811142
vt -5.311882 -1.750771
vt 4.932007 -2.295071
vt 4.867607 -2.218568
vt -4.932007 -2.295071
vt -4.867607 -2.218568
vt 4.376795 -2.665415
vt 4.330902 -2.576568
vt -4.376795 -2.665415
vt -4.330902 -2.576568
vt 3.753444 -2.903846
vt 3.72833 -2.807051
vt -3.753444 -2.903846
vt -3.72833 -2.807051
vt 3.092805 -2.998564
vt 3.089712 -2.898612
vt -3.092805 -2.998564
vt -3.089712 -2.898612
vt 2.427573 -2.944882
vt 2.446654 -2.846719
vt -2.427573 -2.944882
vt -2.446654 -2.846719

vn -0.9534057 -2.700719E-08 -0.3016915
vn 0.9536024 -7.208377E-09 0.301069
vn -0.2098852 1.397392E-07 0.9777262
vn -0.9560794 -8.16016E-09 -0.2931079
vn 0.9579716 -8.046878E-08 0.2868632
vn -0.8848627 7.906497E-08 -0.4658521
vn -0.8315369 0.009927178 -0.5467705
vn -0.7782112 0.01985428 -0.6276888
vn 0.8889112 -0.01920162 0.457677
vn 0.8345853 -0.009600841 0.5415666
vn 0.7802595 -6.660968E-08 0.625456
vn -0.5471665 0.01926247 -0.8368023
vn -0.6268234 0.009631281 -0.7722675
vn -0.7064803 8.990889E-08 -0.7077328
vn 0.547267 1.728046E-07 0.8369583
vn 0.6293626 -0.009937708 0.7697029
vn 0.7114583 -0.01987559 0.7024473
vn -0.3486855 5.02733E-08 -0.9372399
vn 0.348687 6.711583E-08 0.9372394
vn -0.1328468 -1.2316E-07 -0.9911368
vn 0.1328496 -7.873135E-09 0.9911364
vn 0.08956213 -2.832306E-07 -0.9959814
vn -0.08956581 2.916869E-07 0.995981
vn 0.3075434 -2.565946E-07 -0.9515342
vn -0.3075417 2.601093E-07 0.9515348
vn 0.5103018 -2.874285E-07 -0.8599955
vn -0.5103019 2.216967E-07 0.8599955
vn 0.7883646 -2.041812E-07 -0.6152085
vn -0.7911865 1.941469E-07 0.6115752
vn 0.8312706 -2.58475E-07 -0.5558682
vn -0.8312705 1.554734E-07 0.5558683
vn 0.9888307 -1.147488E-07 -0.1490432
vn -0.9900357 1.850737E-07 0.1408168
vn 0.9989904 -8.913526E-08 0.04492476
vn -0.9987175 8.693391E-08 -0.05063134
vn 0.996852 -8.42222E-08 0.07928571
vn -0.9968517 1.368244E-07 -0.07928739
vn 0.8861767 4.518156E-08 0.4633476
vn 0.8443792 0.007882786 0.5298406
vn 0.8025818 0.01576553 0.5963337
vn -0.9541506 -0.03252126 -0.2975553
vn -0.8750371 -0.01626057 -0.4514761
vn -0.7959238 1.088817E-07 -0.6053969
vn 0.5314003 0.01503849 0.8469874
vn 0.6099444 0.009211298 0.7861134
vn 0.6884885 0.0033841 0.7252395
vn -0.5096233 -0.01626524 -0.860244
vn -0.5925727 -0.02331701 -0.7984791
vn -0.675522 -0.03036879 -0.7367142
vn 0.3640363 0.004345972 0.9313747
vn 0.4938417 -0.004010179 0.8564914
vn 0.6236472 -0.01236633 0.7816083
vn -0.2011297 0.01154855 -0.9794967
vn -0.4087595 -0.00299175 -0.8833716
vn -0.6163893 -0.01753205 -0.7872465
vn 0.6670061 -0.01228034 0.7449511
vn 0.6106849 -0.006140123 0.7886129
vn 0.5543637 9.893457E-08 0.8322747
vn -0.6707907 -9.414494E-08 -0.7416469
vn -0.6123579 0.006210371 -0.7870604
vn -0.5539251 0.01242084 -0.832474
vn 0.3679438 1.164856E-07 0.9298481
vn -0.3679429 -1.116492E-07 -0.9298485
vn 0.5033423 1.218635E-07 0.8640872
vn -0.3816884 -3.293123E-08 -0.9242912
vn 0.1578907 1.076801E-07 0.9874567
vn -0.4196959 -1.471E-08 -0.9076649
vn -0.1855109 1.854274E-07 0.9826424
vn 0.182531 -1.511848E-07 -0.9832003
vn -0.9197136 6.80929E-08 -0.3925901
vn -4.432689E-06 1 -1.564308E-06
vn 7.5496E-08 -1 -1.238154E-07

g Arch
usemtl ProBuilder/Standard_Vertex_Color
f 3/3/1 4/4/1 2/2/1 1/1/1
f 7/7/2 8/8/2 6/6/2 5/5/2
f 1/1/3 6/11/3 8/10/3 3/9/3
f 4/14/4 10/15/4 9/13/4 2/12/4
f 12/18/5 7/19/5 5/17/5 11/16/5
f 10/22/7 14/23/8 13/21/7 9/20/6
f 16/26/10 12/27/11 11/25/10 15/24/9
f 14/30/13 18/31/14 17/29/13 13/28/12
f 20/34/16 16/35/17 15/33/16 19/32/15
f 18/38/18 22/39/18 21/37/18 17/36/18
f 24/42/19 20/43/19 19/41/19 23/40/19
f 22/46/20 26/47/20 25/45/20 21/44/20
f 28/50/21 24/51/21 23/49/21 27/48/21
f 26/54/22 30/55/22 29/53/22 25/52/22
f 32/58/23 28/59/23 27/57/23 31/56/23
f 30/62/24 34/63/24 33/61/24 29/60/24
f 36/66/25 32/67/25 31/65/25 35/64/25
f 34/70/26 38/71/26 37/69/26 33/68/26
f 40/74/27 36/75/27 35/73/27 39/72/27
f 38/78/28 42/79/28 41/77/28 37/76/28
f 44/82/29 40/83/29 39/81/29 43/80/29
f 42/86/30 46/87/30 45/85/30 41/84/30
f 48/90/31 44/91/31 43/89/31 47/88/31
f 46/94/32 50/95/32 49/93/32 45/92/32
f 52/98/33 48/99/33 47/97/33 51/96/33
f 50/102/34 54/103/34 53/101/34 49/100/34
f 56/106/35 52/107/35 51/105/35 55/104/35
f 54/110/36 58/111/36 57/109/36 53/108/36
f 60/114/37 56/115/37 55/113/37 59/112/37
f 58/118/39 62/119/40 61/117/39 57/116/38
f 64/122/42 60/123/43 59/121/42 63/120/41
f 62/126/45 66/127/46 65/125/45 61/124/44
f 68/130/48 64/131/49 63/129/48 67/128/47
f 66/134/51 70/135/52 69/133/51 65/132/50
f 72/138/54 68/139/55 67/137/54 71/136/53
f 70/142/57 74/143/58 73/141/57 69/140/56
f 76/146/60 72/147/61 71/145/60 75/144/59
f 74/150/62 78/151/62 77/149/62 73/148/62
f 80/154/63 76/155/63 75/153/63 79/152/63
f 78/158/64 82/159/64 81/157/64 77/156/64
f 84/162/65 80/163/65 79/161/65 83/160/65
f 82/166/66 86/167/66 85/165/66 81/164/66
f 88/170/67 84/171/67 83/169/67 87/168/67
f 86/174/68 90/175/68 89/173/68 85/172/68
f 92/178/69 88/179/69 87/177/69 91/176/69
f 91/182/70 89/183/70 90/181/70 92/180/70
f 8/11/71 7/185/71 4/184/71 3/1/71
f 5/187/72 6/188/72 1/1/72 2/186/72
f 7/185/71 12/190/71 10/189/71 4/184/71
f 11/192/72 5/187/72 2/186/72 9/191/72
f 12/190/71 16/194/71 14/193/71 10/189/71
f 15/196/72 11/192/72 9/191/72 13/195/72
f 16/194/71 20/198/71 18/197/71 14/193/71
f 19/200/72 15/196/72 13/195/72 17/199/72
f 20/198/71 24/202/71 22/201/71 18/197/71
f 23/204/72 19/200/72 17/199/72 21/203/72
f 24/202/71 28/206/71 26/205/71 22/201/71
f 27/208/72 23/204/72 21/203/72 25/207/72
f 28/206/71 32/210/71 30/209/71 26/205/71
f 31/212/72 27/208/72 25/207/72 29/211/72
f 32/210/71 36/214/71 34/213/71 30/209/71
f 35/216/72 31/212/72 29/211/72 33/215/72
f 36/214/71 40/218/71 38/217/71 34/213/71
f 39/220/72 35/216/72 33/215/72 37/219/72
f 40/218/71 44/222/71 42/221/71 38/217/71
f 43/224/72 39/220/72 37/219/72 41/223/72
f 44/222/71 48/226/71 46/225/71 42/221/71
f 47/228/72 43/224/72 41/223/72 45/227/72
f 48/226/71 52/230/71 50/229/71 46/225/71
f 51/232/72 47/228/72 45/227/72 49/231/72
f 52/230/71 56/234/71 54/233/71 50/229/71
f 55/236/72 51/232/72 49/231/72 53/235/72
f 56/234/71 60/238/71 58/237/71 54/233/71
f 59/240/72 55/236/72 53/235/72 57/239/72
f 60/238/71 64/242/71 62/241/71 58/237/71
f 63/244/71 59/240/72 57/239/72 61/243/71
f 64/242/71 68/246/71 66/245/71 62/241/71
f 67/248/72 63/244/71 61/243/71 65/247/72
f 68/246/71 72/250/71 70/249/71 66/245/71
f 71/252/72 67/248/72 65/247/72 69/251/72
f 72/250/71 76/254/71 74/253/71 70/249/71
f 75/256/72 71/252/72 69/251/72 73/255/72
f 76/254/71 80/258/71 78/257/71 74/253/71
f 79/260/72 75/256/72 73/255/72 77/259/72
f 80/258/71 84/262/71 82/261/71 78/257/71
f 83/264/72 79/260/72 77/259/72 81/263/72
f 84/262/71 88/266/71 86/265/71 82/261/71
f 87/268/72 83/264/72 81/263/72 85/267/72
f 88/266/71 92/270/71 90/269/71 86/265/71
f 91/272/72 87/268/72 85/267/72 89/271/72

