# ProBuilder 4.0.5
# https://unity3d.com/unity/features/worldbuilding/probuilder
# 22/1/2020 9:37:29

mtllib ./Cube.mtl
o Cube

g Cube
v 10.84 6.773008 -10.70919
v 9.84 6.773008 -10.70919
v 10.84 7.773008 -10.70919
v 9.378135 7.773008 -10.70919
v 9.84 6.773008 -11.70919
v 9.84 7.773008 -11.70919
v 10.84 6.773008 -11.70919
v 10.84 7.773008 -11.70919

vt 0 0
vt -1 0
vt 0 1
vt -1.461865 1
vt 0 0.4193029
vt -1 0.4193029
vt 0 1.520811
vt -1 1.327149
vt 1 0
vt 1 1
vt 1.461865 0
vt 0 -1
vt 1 -1
vt -1 -1

vn 0 0 1
vn -0.9078464 -0.4193029 0
vn -0.9078464 -0.2096514 -0.2096514
vn -0.9078464 0 -0.4193029
vn 0 0 -1
vn 1 0 0
vn 0 1 0
vn 0 -1 0

g Cube
usemtl ProBuilderDefault
f 3/3/1 4/4/1 2/2/1 1/1/1
f 4/7/3 6/8/4 5/6/3 2/5/2
f 6/10/5 8/3/5 7/1/5 5/9/5
f 8/10/6 3/3/6 1/1/6 7/9/6
f 8/12/7 6/13/7 4/11/7 3/1/7
f 1/1/8 2/2/8 5/14/8 7/12/8

